<?xml version="1.0" encoding="UTF-8" standalone="no"?>
<!-- Created with Inkscape (http://www.inkscape.org/) -->

<svg
   width="115mm"
   height="73mm"
   viewBox="0 0 115 73"
   version="1.1"
   id="svg2446"
   inkscape:version="1.2 (dc2aedaf03, 2022-05-15)"
   sodipodi:docname="log_hasor_white.svg"
   xmlns:inkscape="http://www.inkscape.org/namespaces/inkscape"
   xmlns:sodipodi="http://sodipodi.sourceforge.net/DTD/sodipodi-0.dtd"
   xmlns="http://www.w3.org/2000/svg"
   xmlns:svg="http://www.w3.org/2000/svg">
  <sodipodi:namedview
     id="namedview2448"
     pagecolor="#ffffff"
     bordercolor="#666666"
     borderopacity="1.0"
     inkscape:pageshadow="2"
     inkscape:pageopacity="0.0"
     inkscape:pagecheckerboard="0"
     inkscape:document-units="mm"
     showgrid="false"
     inkscape:showpageshadow="2"
     inkscape:deskcolor="#d1d1d1"
     inkscape:zoom="0.79762136"
     inkscape:cx="713.99793"
     inkscape:cy="85.253484"
     inkscape:window-width="1920"
     inkscape:window-height="1009"
     inkscape:window-x="-8"
     inkscape:window-y="-8"
     inkscape:window-maximized="1"
     inkscape:current-layer="layer1" />
  <defs
     id="defs2443">
    <pattern
       id="EMFhbasepattern"
       patternUnits="userSpaceOnUse"
       width="6"
       height="6"
       x="0"
       y="0" />
  </defs>
  <g
     inkscape:label="Calque 1"
     inkscape:groupmode="layer"
     id="layer1">
    <path
       style="fill:#ffffff;fill-opacity:1;stroke-width:0.353018"
       d="m 8.5715999,68.590975 c 0,-4.18085 0.09164,-5.11877 0.5001087,-5.11877 0.27506,0 0.5729197,0.19857 0.6619097,0.44127 0.12944,0.35302 0.25535,0.35302 0.6295487,0 0.778583,-0.73451 2.591637,-0.52958 3.456151,0.39065 1.66739,1.77486 1.255326,5.41529 -0.72912,6.44149 -1.027129,0.53115 -1.481685,0.52567 -2.841762,-0.0342 -0.5357687,-0.22058 -0.6177817,-0.0384 -0.6177817,1.37201 0,1.2103 -0.135463,1.62635 -0.5295267,1.62635 -0.4463457,0 -0.5295277,-0.80409 -0.5295277,-5.11876 z m 4.1145731,1.06922 c 1.410578,-0.98801 1.36143,-4.0569 -0.0801,-5.00142 -1.090269,-0.71437 -2.086841,-0.1617 -2.6196777,1.45282 -0.439941,1.33303 -0.233799,2.47415 0.6232727,3.45018 0.661696,0.75354 1.110804,0.77482 2.076504,0.0984 z m -10.3202375,1.07751 c -1.37926307,-0.60057 -2.07030104,-2.2022 -1.80466007,-4.1827 0.400144,-2.9833 3.49402617,-4.12322 5.56635297,-2.0509 0.8441674,0.84417 1.0318994,1.33007 1.0318994,2.67085 0,2.00382 -0.4141537,2.83553 -1.7580251,3.53047 -1.2419651,0.64225 -1.6253621,0.64632 -3.0355672,0.0323 z m 2.9109202,-1.46753 c 0.7630707,-0.76307 0.8791897,-1.13448 0.7217257,-2.30847 -0.2353057,-1.75433 -0.7861024,-2.43194 -1.9711878,-2.42504 -1.2210004,0.007 -1.6893511,0.33702 -2.1322578,1.50196 -0.4875817,1.28243 -0.111492,2.98538 0.8003644,3.62407 1.0366644,0.7261 1.5391341,0.6497 2.5813555,-0.39252 z m 12.5892703,1.45382 c -1.419123,-0.61731 -1.881142,-1.48898 -1.881142,-3.54904 0,-2.15847 1.398694,-3.70275 3.353675,-3.70275 1.684741,0 3.353674,1.56758 3.353674,3.15001 v 1.08621 h -2.824147 c -3.071876,0 -3.341375,0.2209 -1.957647,1.60463 1.050552,1.05055 2.072266,1.1049 3.016702,0.16046 0.691838,-0.69183 1.776057,-0.96462 1.753865,-0.44127 -0.02405,0.56709 -0.973975,1.48972 -1.89387,1.83947 -1.224196,0.46544 -1.549327,0.449 -2.92111,-0.14772 z m 3.767152,-4.34909 c 0,-0.88855 -1.188724,-1.84364 -2.294619,-1.84364 -1.105896,0 -2.29462,0.95509 -2.29462,1.84364 0,0.15096 1.032579,0.27447 2.29462,0.27447 1.26204,0 2.294619,-0.12351 2.294619,-0.27447 z m 2.471128,0.80399 c 0,-3.47134 0.04483,-3.70669 0.706037,-3.70669 0.38832,0 0.706037,0.16445 0.706037,0.36544 0,0.25191 0.212137,0.25191 0.682829,0 1.072917,-0.57421 2.429993,-0.42978 3.200373,0.3406 0.595286,0.59528 0.706036,1.17672 0.706036,3.70669 0,2.43191 -0.100368,3.00066 -0.529527,3.00066 -0.418604,0 -0.529528,-0.50119 -0.529528,-2.39258 0,-2.57543 -0.605512,-3.96175 -1.730395,-3.96175 -1.264389,0 -1.799788,1.13719 -1.799788,3.82274 0,2.29624 -0.06564,2.53159 -0.706037,2.53159 -0.661209,0 -0.706037,-0.23535 -0.706037,-3.7067 z m 12.002624,-1.23556 v -4.94226 h 3.29896 c 2.699863,0 3.397481,0.11219 3.841445,0.61778 1.37251,1.56301 0.9868,3.70541 -0.80255,4.45777 -0.973656,0.40939 -1.02351,0.50213 -0.502423,0.93459 0.609942,0.5062 2.637013,3.3298 2.637013,3.67322 0,0.11064 -0.30116,0.20116 -0.66924,0.20116 -0.41809,0 -1.100933,-0.67274 -1.819579,-1.79266 -1.368105,-2.132 -2.406904,-2.88845 -3.754442,-2.73398 -0.958131,0.10984 -0.997372,0.19271 -1.09872,2.32027 -0.07838,1.6454 -0.235446,2.20637 -0.617782,2.20637 -0.423816,0 -0.512682,-0.85666 -0.512682,-4.94226 z m 6.152605,-1.26078 c 0.757302,-0.7573 0.697261,-1.81527 -0.128085,-2.25698 -0.375555,-0.201 -1.646422,-0.36544 -2.824147,-0.36544 h -2.141318 v 1.58858 1.58858 h 2.269403 c 1.592403,0 2.434895,-0.16548 2.824147,-0.55474 z m 6.20304,1.79031 v -4.41273 h -1.76509 c -1.33363,0 -1.7651,-0.12944 -1.7651,-0.52953 0,-0.43999 0.68643,-0.52953 4.05971,-0.52953 3.37329,0 4.05972,0.0895 4.05972,0.52953 0,0.40009 -0.43147,0.52953 -1.7651,0.52953 h -1.76509 v 4.41273 c 0,3.68708 -0.0871,4.41273 -0.52953,4.41273 -0.44244,0 -0.52952,-0.72565 -0.52952,-4.41273 z m 6.00131,-0.52953 c 0,-4.70691 0.0336,-4.94226 0.70604,-4.94226 0.67241,0 0.70603,0.23535 0.70603,4.94226 0,4.70691 -0.0336,4.94226 -0.70603,4.94226 -0.67242,0 -0.70604,-0.23535 -0.70604,-4.94226 z m 11.74739,2.89324 c 0.82962,-1.12696 1.98101,-2.95345 2.55865,-4.05887 1.09664,-2.09863 1.40456,-2.30016 2.39915,-1.57026 0.55144,0.40468 0.4816,0.64616 -0.84226,2.9124 -2.38587,4.0842 -3.01612,4.76575 -4.40707,4.76575 h -1.21687 z m 10.65039,-5.81581 c -0.10767,-0.28059 -0.14747,-1.44552 -0.0884,-2.58874 0.0808,-1.56459 0.23827,-2.07858 0.63685,-2.07858 0.41966,0 0.52953,0.50664 0.52953,2.44171 0,1.63902 -0.145,2.49004 -0.44109,2.58873 -0.24259,0.0809 -0.52918,-0.0825 -0.63685,-0.36312 z m -12.39565,-5.04652 c -0.23544,-0.61355 2.5224,-3.68052 3.30956,-3.68052 0.89761,0 0.43073,1.23461 -1.02955,2.72253 -1.62297,1.65369 -1.95889,1.79483 -2.28001,0.95799 z m 23.36356,-1.20385 c -1.26414,-1.28344 -1.63362,-1.87225 -1.35173,-2.15414 0.52472,-0.52473 1.47684,0.0124 2.9048,1.63877 1.08248,1.23289 1.25131,1.92668 0.52753,2.16794 -0.18752,0.0625 -1.12379,-0.68115 -2.0806,-1.65257 z m -40.24955,-0.33563 c -2.52858,-0.61558 -4.346586,-2.11068 -5.278424,-4.34088 -0.922091,-2.20687 -0.761655,-2.74241 0.821569,-2.74241 1.213055,0 1.390145,0.11098 1.563985,0.98017 0.44959,2.24796 3.16372,3.97313 6.22118,3.95433 4.13551,-0.0254 6.60691,-3.74332 4.03028,-6.06304 -0.36594,-0.32946 -2.17133,-1.01457 -4.01197,-1.52246 -6.46183,-1.78305 -8.09916,-2.98391 -8.359804,-6.13131 -0.189436,-2.28755 0.931904,-4.13087 3.233174,-5.31486 1.44297,-0.7424 2.2216,-0.89652 4.43592,-0.87802 4.42081,0.0369 7.27081,1.9726 7.88514,5.35544 0.20495,1.12854 0.18656,1.14731 -1.12397,1.14731 -1.20404,0 -1.37566,-0.11984 -1.78235,-1.24452 -1.47647,-4.08309 -9.92935,-3.63653 -9.92935,0.52455 0,1.55795 1.26986,2.35449 5.6483,3.54299 2.23284,0.6061 4.53574,1.37918 5.11756,1.71795 3.36266,1.95799 3.57805,6.95871 0.41476,9.62907 -1.67403,1.41316 -6.00132,2.08796 -8.886,1.38569 z m 26.47638,-0.13999 c -9.99977,-3.29389 -10.83926,-16.93479 -1.31335,-21.34064 4.20631,-1.94547 9.49259,-0.95721 12.73132,2.38008 2.12213,2.18671 3.0219,4.29547 3.1694,7.42802 0.0976,2.07342 -0.041,3.08875 -0.63915,4.68157 -0.93177,2.48118 -3.34822,5.06741 -5.8288,6.23833 -2.13803,1.00922 -6.02507,1.30251 -8.11942,0.61264 z m 6.97031,-1.64465 c 3.817,-1.42813 6.25237,-5.07331 6.25237,-9.35836 0,-4.07025 -1.81411,-7.04688 -5.4165,-8.8875 -6.67524,-3.41066 -14.4904,1.49281 -14.44623,9.06401 0.0406,6.96687 6.9936,11.65749 13.61036,9.18185 z M 0.45218246,45.468275 V 34.524705 H 1.8642548 3.2763279 v 4.58923 4.58924 h 5.64829 5.6482931 v -4.58924 -4.58923 h 1.412073 1.412074 v 10.94357 10.94356 h -1.412074 -1.412073 v -5.11876 -5.11877 h -5.6482931 -5.64829 v 5.11877 5.11876 H 1.8642548 0.45218246 Z m 20.20959254,8.91371 c 0.423251,-1.11642 2.285862,-6.00131 4.139135,-10.85532 l 3.369588,-8.82545 1.600116,-0.1046 1.600116,-0.10459 4.221496,10.51863 c 2.321824,5.78525 4.272861,10.71721 4.335635,10.95991 0.07868,0.30419 -0.375661,0.44127 -1.46252,0.44127 H 36.88868 l -1.194581,-3.26542 -1.194583,-3.26542 -4.579773,-0.0963 -4.579772,-0.0963 -1.182778,3.36168 -1.182777,3.36168 h -1.541094 -1.541094 z m 12.621108,-7.13547 c 0,-0.51819 -3.212757,-9.32716 -3.522879,-9.65927 -0.149519,-0.16013 -0.377495,0.27198 -0.506613,0.96024 -0.129117,0.68826 -0.863885,2.92629 -1.632817,4.9734 -0.768932,2.04712 -1.398058,3.79931 -1.398058,3.89376 0,0.0945 1.588583,0.17174 3.530184,0.17174 2.026991,0 3.530183,-0.14472 3.530183,-0.33987 z m 63.543265,-1.81695 v -10.98228 l 6.442572,0.14874 c 7.25813,0.16756 8.58982,0.5032 9.7875,2.46681 2.12479,3.48365 0.69547,7.7758 -2.93639,8.81775 -0.80717,0.23158 -1.52398,0.46203 -1.59291,0.51213 -0.0689,0.0501 0.47385,0.61717 1.20619,1.26016 1.19687,1.05086 2.05647,2.24654 5.21838,7.25864 l 0.94649,1.50032 h -1.74996 -1.74995 l -2.75546,-4.1339 c -3.45634,-5.18542 -3.9641,-5.5741 -7.28173,-5.5741 h -2.534087 l -0.0982,4.854 -0.0982,4.854 h -1.402101 -1.402104 z m 12.137672,-1.71063 c 2.1484,-0.81682 2.78004,-3.96767 1.1271,-5.62241 -0.89058,-0.89156 -1.09119,-0.92827 -5.68191,-1.03979 l -4.758727,-0.11561 v 3.55754 3.55753 h 4.213237 c 2.31728,0 4.61241,-0.15176 5.1003,-0.33726 z m -49.498515,1.99701 c -0.6329,-0.7626 -0.13257,-0.95371 2.49679,-0.95371 2.13156,0 2.42337,0.0777 2.32049,0.61778 -0.094,0.49334 -0.55014,0.63866 -2.26451,0.72143 -1.50318,0.0726 -2.26853,-0.043 -2.55277,-0.3855 z m 31.2419,0.22302 c -0.12944,-0.12944 -0.23535,-0.44716 -0.23535,-0.70604 0,-0.34632 0.637396,-0.47069 2.412277,-0.47069 2.590945,0 3.102122,0.19312 2.483665,0.93832 -0.407077,0.4905 -4.213776,0.68523 -4.660592,0.23841 z m -24.87313,-11.16286 c -1.60896,-1.63941 -1.863,-2.36951 -0.8245,-2.36951 0.78418,0 3.70055,3.04167 3.39319,3.53899 -0.40281,0.65177 -1.08696,0.34029 -2.56869,-1.16948 z m 20.58351,1.16948 c -0.30735,-0.49732 2.60901,-3.53899 3.39319,-3.53899 1.03851,0 0.78446,0.7301 -0.82449,2.36951 -1.48173,1.50977 -2.16588,1.82125 -2.5687,1.16948 z m -9.55582,-3.99044 c -0.10767,-0.28059 -0.14747,-1.44552 -0.0884,-2.588738 0.0808,-1.564583 0.23827,-2.078582 0.63685,-2.078582 0.41966,0 0.52953,0.506647 0.52953,2.44171 0,1.63903 -0.145,2.49004 -0.44109,2.58874 -0.24259,0.0809 -0.52918,-0.0825 -0.63685,-0.36313 z m -6.75474,-5.461611 C 69.068315,23.584939 63.803275,16.249687 60.920215,13.694456 53.570735,7.1806817 44.322845,3.2920317 34.399991,2.5429557 31.247221,2.3049527 31.164773,2.2761807 31.164773,1.4139477 V 0.52916667 l 3.794948,0.207786 C 48.004095,1.4511757 59.717995,7.8036647 67.623715,18.450743 c 1.1486,1.546888 2.64586,3.919564 3.32725,5.272613 1.17011,2.323549 1.20366,2.485838 0.60441,2.924024 -0.84846,0.620408 -1.1846,0.584703 -1.44835,-0.153846 z"
       id="path1525" />
  </g>
</svg>
